<mxfile host="app.diagrams.net" modified="2023-08-30T04:22:20.226Z" agent="Mozilla/5.0 (Windows NT 10.0; Win64; x64) AppleWebKit/537.36 (KHTML, like Gecko) Chrome/116.0.0.0 Safari/537.36" etag="7_1KPFpNC8_6ga9BQfKY" version="21.7.0" type="github">
  <diagram name="Page-1" id="AduzCYzp2sgBGg_k5Ylr">
    <mxGraphModel dx="880" dy="438" grid="1" gridSize="10" guides="1" tooltips="1" connect="1" arrows="1" fold="1" page="1" pageScale="1" pageWidth="850" pageHeight="1100" math="0" shadow="0">
      <root>
        <mxCell id="0" />
        <mxCell id="1" parent="0" />
        <mxCell id="Hh1YSapMTzfnrCuxQ2ml-1" value="" style="rounded=0;whiteSpace=wrap;html=1;" vertex="1" parent="1">
          <mxGeometry x="170" y="60" width="600" height="360" as="geometry" />
        </mxCell>
        <mxCell id="Hh1YSapMTzfnrCuxQ2ml-2" value="NorthVirginaRegion" style="text;html=1;align=center;verticalAlign=middle;resizable=0;points=[];autosize=1;strokeColor=none;fillColor=none;" vertex="1" parent="1">
          <mxGeometry x="160" y="30" width="130" height="30" as="geometry" />
        </mxCell>
        <mxCell id="Hh1YSapMTzfnrCuxQ2ml-3" value="" style="rounded=1;whiteSpace=wrap;html=1;strokeWidth=2;fillWeight=4;hachureGap=8;hachureAngle=45;fillColor=#1ba1e2;sketch=1;" vertex="1" parent="1">
          <mxGeometry x="190" y="80" width="560" height="240" as="geometry" />
        </mxCell>
        <mxCell id="Hh1YSapMTzfnrCuxQ2ml-4" value="Devops-VPC" style="text;html=1;align=center;verticalAlign=middle;resizable=0;points=[];autosize=1;strokeColor=none;fillColor=none;" vertex="1" parent="1">
          <mxGeometry x="190" y="320" width="90" height="30" as="geometry" />
        </mxCell>
        <mxCell id="Hh1YSapMTzfnrCuxQ2ml-6" value="" style="shape=ext;double=1;rounded=0;whiteSpace=wrap;html=1;" vertex="1" parent="1">
          <mxGeometry x="205" y="90" width="210" height="160" as="geometry" />
        </mxCell>
        <mxCell id="Hh1YSapMTzfnrCuxQ2ml-7" value="" style="shape=ext;double=1;rounded=0;whiteSpace=wrap;html=1;" vertex="1" parent="1">
          <mxGeometry x="500" y="100" width="210" height="160" as="geometry" />
        </mxCell>
        <mxCell id="Hh1YSapMTzfnrCuxQ2ml-8" value="Devops-PBSN" style="text;html=1;align=center;verticalAlign=middle;resizable=0;points=[];autosize=1;strokeColor=none;fillColor=none;" vertex="1" parent="1">
          <mxGeometry x="200" y="100" width="100" height="30" as="geometry" />
        </mxCell>
        <mxCell id="Hh1YSapMTzfnrCuxQ2ml-9" value="Devops-PRSN" style="text;html=1;align=center;verticalAlign=middle;resizable=0;points=[];autosize=1;strokeColor=none;fillColor=none;" vertex="1" parent="1">
          <mxGeometry x="500" y="100" width="100" height="30" as="geometry" />
        </mxCell>
        <mxCell id="Hh1YSapMTzfnrCuxQ2ml-11" value="Devops-WS-1" style="labelPosition=center;verticalLabelPosition=middle;align=center;html=1;shape=mxgraph.basic.shaded_button;dx=10;fillColor=#E6E6E6;strokeColor=none;whiteSpace=wrap;" vertex="1" parent="1">
          <mxGeometry x="260" y="140" width="100" height="60" as="geometry" />
        </mxCell>
        <mxCell id="Hh1YSapMTzfnrCuxQ2ml-12" value="Devops-AS-1" style="labelPosition=center;verticalLabelPosition=middle;align=center;html=1;shape=mxgraph.basic.shaded_button;dx=10;fillColor=#E6E6E6;strokeColor=none;whiteSpace=wrap;" vertex="1" parent="1">
          <mxGeometry x="555" y="140" width="100" height="60" as="geometry" />
        </mxCell>
        <mxCell id="Hh1YSapMTzfnrCuxQ2ml-13" value="" style="line;strokeWidth=4;html=1;perimeter=backbonePerimeter;points=[];outlineConnect=0;" vertex="1" parent="1">
          <mxGeometry x="365" y="165" width="190" height="10" as="geometry" />
        </mxCell>
        <mxCell id="Hh1YSapMTzfnrCuxQ2ml-17" value="" style="edgeStyle=orthogonalEdgeStyle;rounded=0;orthogonalLoop=1;jettySize=auto;html=1;exitX=0.25;exitY=0;exitDx=0;exitDy=0;" edge="1" parent="1" source="Hh1YSapMTzfnrCuxQ2ml-14">
          <mxGeometry relative="1" as="geometry">
            <mxPoint x="437.5" y="290" as="sourcePoint" />
            <mxPoint x="310" y="240" as="targetPoint" />
            <Array as="points">
              <mxPoint x="449" y="270" />
              <mxPoint x="311" y="270" />
            </Array>
          </mxGeometry>
        </mxCell>
        <mxCell id="Hh1YSapMTzfnrCuxQ2ml-14" value="" style="shape=image;html=1;verticalLabelPosition=bottom;verticalAlign=top;imageAspect=0;image=img/clipart/Gear_128x128.png" vertex="1" parent="1">
          <mxGeometry x="437.5" y="300" width="45" height="40" as="geometry" />
        </mxCell>
        <mxCell id="Hh1YSapMTzfnrCuxQ2ml-15" value="Devops-IG" style="text;html=1;align=center;verticalAlign=middle;resizable=0;points=[];autosize=1;strokeColor=none;fillColor=none;" vertex="1" parent="1">
          <mxGeometry x="440" y="330" width="80" height="30" as="geometry" />
        </mxCell>
      </root>
    </mxGraphModel>
  </diagram>
</mxfile>
